<mxfile host="app.diagrams.net" agent="Mozilla/5.0 (Windows NT 10.0; Win64; x64) AppleWebKit/537.36 (KHTML, like Gecko) Chrome/131.0.0.0 Safari/537.36" version="25.0.3">
  <diagram name="Halaman-1" id="N6JCNbONlcQefWskSiqj">
    <mxGraphModel dx="954" dy="604" grid="1" gridSize="10" guides="1" tooltips="1" connect="1" arrows="1" fold="1" page="1" pageScale="1" pageWidth="827" pageHeight="1169" math="0" shadow="0">
      <root>
        <mxCell id="0" />
        <mxCell id="1" parent="0" />
        <mxCell id="XeFQS02gsv4U9oVI8NQg-1" value="User&lt;div&gt;&lt;br&gt;&lt;/div&gt;" style="shape=umlActor;verticalLabelPosition=bottom;verticalAlign=top;html=1;outlineConnect=0;" vertex="1" parent="1">
          <mxGeometry x="30" y="215" width="60" height="110" as="geometry" />
        </mxCell>
        <mxCell id="XeFQS02gsv4U9oVI8NQg-2" value="Like foto" style="ellipse;whiteSpace=wrap;html=1;" vertex="1" parent="1">
          <mxGeometry x="346" y="100" width="86" height="60" as="geometry" />
        </mxCell>
        <mxCell id="XeFQS02gsv4U9oVI8NQg-11" value="Hapus album" style="ellipse;whiteSpace=wrap;html=1;" vertex="1" parent="1">
          <mxGeometry x="371" y="240" width="86" height="60" as="geometry" />
        </mxCell>
        <mxCell id="XeFQS02gsv4U9oVI8NQg-12" value="Post foto" style="ellipse;whiteSpace=wrap;html=1;" vertex="1" parent="1">
          <mxGeometry x="280" y="50" width="86" height="60" as="geometry" />
        </mxCell>
        <mxCell id="XeFQS02gsv4U9oVI8NQg-13" value="Hapus foto" style="ellipse;whiteSpace=wrap;html=1;" vertex="1" parent="1">
          <mxGeometry x="280" y="430" width="86" height="60" as="geometry" />
        </mxCell>
        <mxCell id="XeFQS02gsv4U9oVI8NQg-14" value="Komentar foto" style="ellipse;whiteSpace=wrap;html=1;" vertex="1" parent="1">
          <mxGeometry x="346" y="380" width="86" height="60" as="geometry" />
        </mxCell>
        <mxCell id="XeFQS02gsv4U9oVI8NQg-15" value="Buat akun" style="ellipse;whiteSpace=wrap;html=1;" vertex="1" parent="1">
          <mxGeometry x="190" y="30" width="86" height="60" as="geometry" />
        </mxCell>
        <mxCell id="XeFQS02gsv4U9oVI8NQg-16" value="Buat album" style="ellipse;whiteSpace=wrap;html=1;" vertex="1" parent="1">
          <mxGeometry x="371" y="170" width="86" height="60" as="geometry" />
        </mxCell>
        <mxCell id="XeFQS02gsv4U9oVI8NQg-17" value="Edit album" style="ellipse;whiteSpace=wrap;html=1;" vertex="1" parent="1">
          <mxGeometry x="371" y="310" width="86" height="60" as="geometry" />
        </mxCell>
        <mxCell id="XeFQS02gsv4U9oVI8NQg-19" value="Edit foto" style="ellipse;whiteSpace=wrap;html=1;" vertex="1" parent="1">
          <mxGeometry x="190" y="450" width="86" height="60" as="geometry" />
        </mxCell>
        <mxCell id="XeFQS02gsv4U9oVI8NQg-37" value="" style="endArrow=none;html=1;rounded=0;" edge="1" parent="1" source="XeFQS02gsv4U9oVI8NQg-12" target="XeFQS02gsv4U9oVI8NQg-15">
          <mxGeometry width="50" height="50" relative="1" as="geometry">
            <mxPoint x="390" y="320" as="sourcePoint" />
            <mxPoint x="440" y="270" as="targetPoint" />
            <Array as="points">
              <mxPoint x="60" y="270" />
            </Array>
          </mxGeometry>
        </mxCell>
        <mxCell id="XeFQS02gsv4U9oVI8NQg-38" value="" style="endArrow=none;html=1;rounded=0;" edge="1" parent="1" source="XeFQS02gsv4U9oVI8NQg-16" target="XeFQS02gsv4U9oVI8NQg-2">
          <mxGeometry width="50" height="50" relative="1" as="geometry">
            <mxPoint x="303" y="112" as="sourcePoint" />
            <mxPoint x="222" y="96" as="targetPoint" />
            <Array as="points">
              <mxPoint x="60" y="270" />
            </Array>
          </mxGeometry>
        </mxCell>
        <mxCell id="XeFQS02gsv4U9oVI8NQg-39" value="" style="endArrow=none;html=1;rounded=0;" edge="1" parent="1" source="XeFQS02gsv4U9oVI8NQg-17" target="XeFQS02gsv4U9oVI8NQg-11">
          <mxGeometry width="50" height="50" relative="1" as="geometry">
            <mxPoint x="313" y="122" as="sourcePoint" />
            <mxPoint x="232" y="106" as="targetPoint" />
            <Array as="points">
              <mxPoint x="60" y="270" />
            </Array>
          </mxGeometry>
        </mxCell>
        <mxCell id="XeFQS02gsv4U9oVI8NQg-40" value="" style="endArrow=none;html=1;rounded=0;" edge="1" parent="1" source="XeFQS02gsv4U9oVI8NQg-13" target="XeFQS02gsv4U9oVI8NQg-14">
          <mxGeometry width="50" height="50" relative="1" as="geometry">
            <mxPoint x="323" y="132" as="sourcePoint" />
            <mxPoint x="242" y="116" as="targetPoint" />
            <Array as="points">
              <mxPoint x="60" y="270" />
            </Array>
          </mxGeometry>
        </mxCell>
        <mxCell id="XeFQS02gsv4U9oVI8NQg-41" value="" style="endArrow=none;html=1;rounded=0;" edge="1" parent="1" source="XeFQS02gsv4U9oVI8NQg-19" target="XeFQS02gsv4U9oVI8NQg-1">
          <mxGeometry width="50" height="50" relative="1" as="geometry">
            <mxPoint x="333" y="142" as="sourcePoint" />
            <mxPoint x="252" y="126" as="targetPoint" />
            <Array as="points">
              <mxPoint x="60" y="280" />
            </Array>
          </mxGeometry>
        </mxCell>
      </root>
    </mxGraphModel>
  </diagram>
</mxfile>
